<?xml version="1.0" standalone="no"?>
<!DOCTYPE svg PUBLIC "-//W3C//DTD SVG 20010904//EN"
 "http://www.w3.org/TR/2001/REC-SVG-20010904/DTD/svg10.dtd">
<svg version="1.0" xmlns="http://www.w3.org/2000/svg"
 width="900.000000pt" height="780.000000pt" viewBox="0 0 900.000000 780.000000"
 preserveAspectRatio="xMidYMid meet">

<g transform="translate(0.000000,780.000000) scale(0.100000,-0.100000)"
fill="#000000" stroke="none">
<path d="M4335 7789 c-484 -58 -783 -301 -894 -727 -29 -111 -44 -209 -56
-383 l-7 -86 112 -7 112 -7 35 41 c86 100 198 104 295 10 43 -42 55 -48 105
-53 31 -3 61 -11 66 -16 17 -17 228 -13 251 4 11 8 28 15 37 15 10 0 20 8 23
18 10 30 92 107 148 137 46 25 64 29 133 30 64 0 89 -5 127 -24 52 -25 116
-81 143 -123 16 -27 21 -28 95 -28 81 0 110 -14 110 -55 0 -16 7 -17 63 -12
34 4 135 7 224 8 90 0 165 4 166 7 6 11 -11 174 -29 280 -19 114 -72 304 -110
394 -123 295 -352 488 -662 559 -103 23 -363 33 -487 18z m185 -79 c126 -14
196 -33 309 -87 148 -70 277 -212 305 -333 3 -14 4 -20 1 -15 -3 7 -122 8
-348 3 -661 -14 -1215 -14 -1210 -1 3 7 10 10 16 6 6 -3 7 -1 3 6 -16 25 124
180 226 249 121 83 321 155 473 171 113 12 119 12 225 1z"/>
<path d="M4999 6566 c-2 -2 -145 -6 -318 -9 -172 -3 -317 -9 -321 -14 -5 -4
-9 -60 -10 -123 -4 -191 -11 -172 78 -225 42 -26 113 -68 157 -95 44 -27 112
-58 150 -70 39 -12 81 -26 94 -31 13 -5 65 -12 115 -15 l91 -6 47 36 c33 25
50 47 58 74 15 54 13 455 -2 470 -11 11 -128 18 -139 8z"/>
<path d="M3354 6549 c-13 -20 -17 -279 -6 -386 8 -78 14 -97 37 -125 40 -48
62 -57 136 -58 88 0 132 9 125 26 -4 11 -1 11 13 2 35 -21 181 51 260 129 7 8
49 32 93 54 56 28 82 47 89 66 9 24 -1 277 -12 287 -2 2 -166 7 -365 11 -302
6 -363 5 -370 -6z"/>
<path d="M5576 6409 c-61 -23 -67 -29 -87 -87 l-16 -47 -143 -3 c-100 -2 -147
-6 -152 -15 -4 -7 -8 -46 -8 -87 0 -91 -18 -131 -78 -177 -35 -27 -53 -33 -91
-33 -26 0 -51 -3 -54 -6 -4 -4 17 -21 45 -38 76 -45 113 -109 113 -195 0 -48
-6 -78 -22 -109 l-21 -43 23 -89 c93 -344 289 -846 497 -1269 66 -134 140
-289 164 -344 48 -106 134 -354 155 -449 8 -32 17 -58 21 -58 16 0 59 82 69
132 18 83 5 311 -25 449 -44 203 -95 315 -217 475 -95 125 -99 134 -68 134 39
0 141 -54 197 -105 180 -162 316 -509 353 -895 6 -69 12 -126 14 -128 2 -2 44
-12 94 -22 186 -38 373 -117 454 -192 26 -25 49 -42 52 -38 2 3 9 46 16 96 23
178 -1 414 -62 604 -30 94 -147 328 -226 452 -78 123 -276 366 -442 542 -261
278 -419 545 -473 801 -16 76 -19 135 -19 385 0 162 -3 314 -7 337 l-7 41 -49
-19z m334 -1429 c25 -25 95 -102 155 -171 163 -187 157 -178 137 -177 -9 0
-26 -3 -37 -7 -16 -5 -17 -5 -5 4 8 5 11 13 7 17 -3 4 -13 1 -22 -6 -8 -7 -15
-9 -15 -4 0 5 -4 4 -8 -3 -12 -20 -71 41 -139 142 -91 136 -163 253 -174 283
l-10 27 33 -30 c18 -16 53 -50 78 -75z"/>
<path d="M6100 4650 c0 -5 5 -10 10 -10 6 0 10 5 10 10 0 6 -4 10 -10 10 -5 0
-10 -4 -10 -10z"/>
<path d="M4127 6263 c-2 -10 -8 -25 -11 -33 -5 -13 11 -15 109 -16 101 0 115
2 109 15 -3 9 -9 24 -11 34 -5 15 -18 17 -98 17 -80 0 -93 -2 -98 -17z"/>
<path d="M3407 5852 c-8 -141 -24 -249 -61 -394 -60 -235 -160 -419 -374 -691
-560 -710 -856 -1391 -829 -1908 8 -150 11 -158 46 -125 14 14 52 37 84 51 52
24 68 27 145 23 72 -2 98 -8 152 -34 166 -79 291 -239 482 -619 103 -205 148
-278 263 -422 61 -78 67 -83 103 -83 66 0 143 29 183 69 101 101 63 264 -112
476 -96 116 -225 224 -424 358 -232 155 -318 239 -389 380 -55 109 -77 210
-77 353 0 246 83 517 263 847 182 337 227 363 68 40 -117 -238 -161 -346 -198
-493 -23 -91 -26 -126 -27 -260 0 -164 9 -218 59 -341 22 -55 85 -163 91 -157
2 2 8 57 15 123 15 164 62 392 109 533 50 149 91 247 233 557 246 536 365 883
404 1180 l17 124 -52 57 c-70 76 -94 126 -95 194 0 79 28 127 114 191 38 28
70 55 70 60 0 18 -29 23 -121 20 -54 -1 -106 2 -117 8 -18 10 -19 4 -25 -117z
m-267 -1023 c0 -35 -240 -445 -278 -476 -9 -7 -13 -13 -9 -13 5 0 2 -6 -5 -14
-7 -8 -16 -12 -21 -9 -4 2 -7 1 -6 -4 1 -4 1 -17 0 -28 l-2 -20 -16 20 c-15
20 -15 20 -10 -1 2 -12 0 -28 -5 -35 -8 -11 -9 -10 -4 4 4 14 1 16 -19 13 -14
-3 -23 -2 -21 2 2 4 -3 16 -11 27 -15 20 -15 20 -9 -1 4 -14 2 -24 -8 -27 -11
-5 -13 0 -6 24 5 16 6 29 4 29 -3 0 -2 5 2 11 4 8 9 7 16 -2 7 -11 8 -10 4 4
-10 32 173 284 312 429 73 76 92 90 92 67z m-453 -571 c-3 -8 -6 -5 -6 6 -1
11 2 17 5 13 3 -3 4 -12 1 -19z"/>
<path d="M2775 4309 c-4 -6 -5 -12 -2 -15 2 -3 7 2 10 11 7 17 1 20 -8 4z"/>
<path d="M2750 4290 c6 -11 12 -20 14 -20 2 0 2 9 -1 20 -3 11 -9 20 -15 20
-5 0 -4 -9 2 -20z"/>
<path d="M4141 3678 c0 -11 -7 -15 -15 -12 -24 9 -27 -13 -11 -71 8 -30 22
-81 31 -112 l16 -58 50 100 c28 55 51 105 52 111 1 7 8 20 16 30 14 18 13 18
-7 0 -13 -10 -20 -23 -16 -29 3 -6 1 -7 -5 -3 -9 5 -9 13 0 29 9 19 9 20 -3
11 -8 -7 -33 -13 -56 -16 -36 -3 -43 0 -46 17 -3 15 -5 16 -6 3z"/>
<path d="M3630 3664 c-19 -10 -26 -10 -32 -1 -5 8 -8 9 -8 1 0 -7 38 -54 85
-105 46 -52 84 -97 85 -100 0 -3 -88 -68 -195 -144 -108 -76 -194 -140 -191
-142 3 -3 678 211 766 243 14 5 -76 57 -328 190 -88 46 -106 53 -120 42 -12
-10 -14 -10 -8 0 9 15 -8 16 -37 1 -21 -10 -21 -9 2 10 26 24 18 26 -19 5z"/>
<path d="M4888 3648 c-21 -6 -38 -14 -38 -20 0 -5 -5 -6 -11 -3 -5 4 -22 2
-37 -3 -15 -6 -160 -52 -322 -103 -162 -51 -298 -95 -302 -98 -6 -5 321 -192
646 -370 l81 -45 -125 133 c-159 168 -219 235 -220 241 0 4 68 55 150 115 83
59 150 112 150 117 0 5 3 7 8 5 4 -3 21 6 37 19 17 13 28 23 25 23 -3 -1 -22
-6 -42 -11z"/>
<path d="M4065 3237 c-49 -95 -141 -269 -202 -387 l-113 -215 184 184 183 183
133 -206 c73 -114 134 -205 137 -203 4 5 -214 784 -226 804 -3 6 -46 -66 -96
-160z"/>
<path d="M6110 3307 c-157 -37 -213 -130 -190 -318 18 -151 76 -276 169 -365
140 -135 306 -120 515 46 126 100 203 211 213 305 7 67 -9 113 -53 159 -110
114 -484 212 -654 173z m144 -87 c82 -13 193 -50 208 -68 11 -13 10 -15 -4 -9
-10 4 -18 2 -18 -5 0 -7 -4 -7 -14 1 -8 7 -16 8 -18 4 -1 -5 -48 -16 -103 -26
-180 -31 -264 -46 -290 -53 -22 -5 -25 -3 -25 20 0 41 25 93 54 112 50 32 115
40 210 24z"/>
<path d="M5790 3255 c-98 -21 -130 -35 -130 -57 0 -18 4 -20 38 -14 20 3 58 6
83 6 44 0 46 1 57 37 6 20 10 38 9 38 -1 1 -27 -4 -57 -10z"/>
<path d="M6880 3018 c0 -38 5 -46 38 -69 67 -48 133 -111 188 -180 30 -37 54
-71 54 -74 0 -4 13 -25 29 -48 32 -47 83 -190 101 -284 14 -70 8 -220 -10
-253 -6 -12 -9 -28 -6 -36 3 -9 1 -12 -4 -9 -6 3 -10 0 -10 -9 0 -8 -5 -16
-10 -18 -7 -2 -2 -38 14 -98 96 -365 92 -671 -12 -927 -16 -40 -28 -73 -26
-73 8 0 104 151 138 217 56 113 91 207 126 343 27 108 32 148 37 290 10 328
-61 584 -241 870 -75 118 -237 284 -363 372 l-43 29 0 -43z"/>
<path d="M7213 1977 c2 -15 2 -25 -1 -23 -2 3 -13 1 -23 -5 -32 -17 -229 -32
-229 -18 0 5 -9 9 -20 9 -14 0 -18 -5 -14 -17 5 -15 3 -15 -10 1 -20 24 -21 8
-1 -18 8 -11 19 -15 27 -10 10 6 11 5 1 -7 -9 -12 -4 -33 29 -104 51 -113 121
-325 143 -434 35 -172 35 -392 0 -491 -21 -60 -19 -67 11 -39 70 65 149 254
180 429 26 150 15 398 -25 553 -30 114 -77 237 -68 174z"/>
<path d="M6873 1913 c4 -7 16 -33 62 -138 8 -16 19 -50 26 -75 7 -25 16 -50
20 -55 10 -14 8 -76 -2 -69 -4 2 -10 0 -14 -6 -3 -5 -11 -10 -16 -10 -6 0 -3
7 5 16 9 8 16 16 16 17 0 1 -20 1 -45 -1 -25 -2 -45 -8 -45 -14 0 -17 -173 2
-188 21 -8 9 -4 -2 9 -24 26 -47 35 -57 26 -32 -4 11 -3 16 4 12 6 -4 8 -13 5
-21 -7 -17 18 -66 29 -56 5 4 5 1 1 -5 -4 -7 4 -32 18 -55 41 -71 144 -310
176 -407 36 -112 54 -210 47 -262 -7 -50 8 -48 44 6 99 146 100 469 3 761 -48
144 -164 404 -180 404 -3 0 -3 -3 -1 -7z"/>
<path d="M5789 1612 c6 -12 19 -26 29 -31 9 -6 13 -11 8 -11 -5 0 -3 -7 4 -15
10 -12 16 -13 29 -3 14 12 15 11 1 -6 -13 -16 -12 -20 9 -37 13 -11 20 -19 17
-19 -4 0 14 -28 40 -62 104 -137 259 -310 396 -444 224 -220 391 -333 519
-353 75 -12 85 -6 56 33 -13 17 -111 150 -217 296 -106 146 -232 316 -279 379
-47 63 -100 135 -117 160 -17 25 -43 57 -57 70 -15 13 -24 28 -20 34 3 6 1 7
-6 3 -9 -6 -9 -11 -1 -21 16 -20 -10 -25 -77 -16 -32 5 -73 6 -90 4 -20 -3
-33 -1 -33 6 0 7 -8 8 -26 1 -61 -24 -150 -9 -153 25 -1 6 -4 10 -8 10 -5 0
-14 4 -21 9 -11 7 -12 4 -3 -12z m131 -58 c0 -8 -19 -13 -24 -6 -3 5 1 9 9 9
8 0 15 -2 15 -3z"/>
<path d="M6164 1595 c-1 -12 3 -22 10 -22 6 0 11 10 11 22 0 28 -20 28 -21 0z"/>
<path d="M6650 1590 c0 -9 -9 -11 -30 -6 -22 4 -30 2 -30 -9 0 -15 -19 -15
-54 0 -11 5 -26 3 -38 -4 -11 -7 -32 -10 -47 -6 -15 3 -46 2 -69 -4 -35 -7
-46 -6 -66 10 -24 19 -24 19 -20 -4 2 -12 2 -16 -2 -9 -3 6 -10 12 -16 12 -6
0 -3 -9 7 -20 10 -11 22 -17 26 -14 5 3 6 -3 2 -12 -3 -10 0 -22 8 -28 8 -6
20 -23 28 -36 15 -27 556 -776 576 -798 9 -10 17 -9 38 8 25 19 27 28 27 88 0
153 -88 399 -237 667 -110 197 -103 186 -103 165z"/>
<path d="M3594 1362 c121 -193 150 -342 97 -511 -10 -34 -16 -63 -11 -66 11
-7 164 12 312 39 324 60 430 65 693 32 116 -14 234 -28 262 -30 l53 -5 -54 67
c-29 37 -77 103 -105 147 -28 44 -55 86 -61 92 -6 7 -10 16 -10 20 0 21 -13
43 -29 48 -10 3 -58 -4 -107 -16 -153 -36 -417 -40 -559 -9 -158 36 -316 102
-438 184 l-67 46 24 -38z"/>
<path d="M5090 726 c0 -2 8 -10 18 -17 15 -13 16 -12 3 4 -13 16 -21 21 -21
13z"/>
<path d="M5150 676 c0 -2 8 -10 18 -17 15 -13 16 -12 3 4 -13 16 -21 21 -21
13z"/>
<path d="M6790 570 c-8 -5 -10 -10 -5 -10 6 0 17 5 25 10 8 5 11 10 5 10 -5 0
-17 -5 -25 -10z"/>
<path d="M5520 455 c14 -8 30 -14 35 -14 6 0 -1 6 -15 14 -14 8 -29 14 -35 14
-5 0 1 -6 15 -14z"/>
<path d="M5578 433 c7 -3 16 -2 19 1 4 3 -2 6 -13 5 -11 0 -14 -3 -6 -6z"/>
</g>
</svg>
